Coordinates
version=1
nRows=15
nColumns=34
inDegrees=no

Units are S.I. units (second, meters, Newtons, ...)
If the header above contains a line with 'inDegrees', this indicates whether rotational values are in degrees (yes) or radians (no).

endheader
time	pelvis_tilt	pelvis_list	pelvis_rotation	pelvis_tx	pelvis_ty	pelvis_tz	hip_flexion_r	hip_adduction_r	hip_rotation_r	knee_angle_r	ankle_angle_r	subtalar_angle_r	mtp_angle_r	hip_flexion_l	hip_adduction_l	hip_rotation_l	knee_angle_l	ankle_angle_l	subtalar_angle_l	mtp_angle_l	lumbar_extension	lumbar_bending	lumbar_rotation	arm_flex_r	arm_add_r	arm_rot_r	elbow_flex_r	pro_sup_r	arm_flex_l	arm_add_l	arm_rot_l	elbow_flex_l	pro_sup_l
3.3	0.200837	-0.0438537	-0.0378819	-0.207614	0.942853	-0.570054	-0.16454	-0.0559167	-0.0788914	0.101011	0.254679	0.11938	-0.0230722	-0.0959833	-0.206378	-0.234988	0.272327	0.282667	0.166454	-0.0230722	-0.508192	0.0495145	0.0417098	0.690434	-0.311308	0.0294011	1.25555	1.70779	0.682487	-0.276448	0.00565073	1.23427	1.56511
3.31	0.183826	-0.0459026	-0.0375004	-0.209589	0.94133	-0.569904	-0.12876	-0.0543761	-0.0848853	0.12838	0.265345	0.120478	-0.0230722	-0.0625968	-0.211636	-0.224005	0.294335	0.285108	0.15107	-0.0230722	-0.498998	0.0522028	0.0424814	0.698325	-0.312137	0.032468	1.2557	1.70795	0.689688	-0.276735	0.00900555	1.2336	1.56625
3.32	0.165512	-0.0473661	-0.0370249	-0.211645	0.939612	-0.569757	-0.0906935	-0.0536785	-0.0907333	0.157695	0.276209	0.121085	-0.0230722	-0.0274985	-0.216078	-0.212525	0.316319	0.287122	0.135817	-0.0230722	-0.488777	0.054335	0.0429621	0.706481	-0.312992	0.0354226	1.25605	1.70809	0.697291	-0.277168	0.0126227	1.2332	1.56799
3.33	0.146212	-0.0481879	-0.0364566	-0.213782	0.937706	-0.569609	-0.0510057	-0.0538625	-0.0960647	0.188221	0.286951	0.120893	-0.0230722	0.00886857	-0.219615	-0.20081	0.338156	0.288757	0.121057	-0.0230722	-0.477872	0.0558195	0.0431715	0.714941	-0.313927	0.038237	1.25667	1.70805	0.705402	-0.277739	0.0165318	1.23307	1.57024
3.34	0.12627	-0.048368	-0.0357944	-0.215998	0.935623	-0.569461	-0.0103386	-0.054896	-0.100563	0.219319	0.297305	0.119654	-0.0230722	0.046065	-0.222237	-0.189112	0.359796	0.290109	0.10709	-0.0230722	-0.466658	0.056628	0.0431573	0.723751	-0.315037	0.0409441	1.25767	1.70768	0.714136	-0.278447	0.0207919	1.23323	1.57282
3.35	0.106026	-0.0479498	-0.035037	-0.218295	0.933375	-0.569315	0.0307363	-0.0566965	-0.104009	0.250496	0.307086	0.117222	-0.0230722	0.0836856	-0.223997	-0.177651	0.38126	0.291306	0.0941224	-0.0230722	-0.455514	0.0567863	0.0429828	0.732981	-0.316454	0.0436348	1.25912	1.70697	0.723614	-0.279306	0.0254831	1.23366	1.57553
3.36	0.0857917	-0.0470032	-0.034183	-0.220673	0.930971	-0.569174	0.0717541	-0.0591557	-0.10629	0.281424	0.316193	0.113569	-0.0230722	0.121381	-0.224982	-0.166599	0.402616	0.292491	0.0822622	-0.0230722	-0.444794	0.0563557	0.0427096	0.742719	-0.318316	0.0464459	1.26108	1.70596	0.733948	-0.28034	0.0306743	1.23432	1.57818
3.37	0.0658279	-0.0456083	-0.0332292	-0.223131	0.928418	-0.569041	0.112371	-0.0621592	-0.107403	0.311938	0.324607	0.108767	-0.0230722	0.158871	-0.225299	-0.156082	0.423951	0.293797	0.0715291	-0.0230722	-0.434792	0.0554137	0.0423752	0.75308	-0.320726	0.0495293	1.26354	1.70476	0.745233	-0.281581	0.0363914	1.23517	1.5807
3.38	0.0463339	-0.0438449	-0.0321651	-0.225669	0.925714	-0.568919	0.152364	-0.0655973	-0.10743	0.341995	0.332368	0.102971	-0.0230722	0.195949	-0.225057	-0.146179	0.445351	0.295338	0.0618867	-0.0230722	-0.425733	0.0540396	0.0419764	0.764204	-0.323714	0.0530133	1.2664	1.70342	0.757537	-0.283062	0.0426006	1.23615	1.58305
3.39	0.0274448	-0.0417898	-0.030973	-0.228285	0.922857	-0.568807	0.191608	-0.069369	-0.106518	0.371641	0.339569	0.0963876	-0.0230721	0.232482	-0.224366	-0.136934	0.46689	0.297211	0.0532754	-0.0230722	-0.417766	0.0523108	0.0414719	0.776245	-0.327227	0.0569782	1.26949	1.70204	0.770902	-0.284814	0.0492185	1.23723	1.58523
3.4	0.00923721	-0.0395187	-0.0296317	-0.230975	0.919838	-0.568705	0.230059	-0.073379	-0.10485	0.400962	0.346329	0.0892477	-0.0230721	0.268401	-0.22334	-0.128361	0.488623	0.299495	0.0456352	-0.0230722	-0.410977	0.0503055	0.0408057	0.789348	-0.331162	0.0614529	1.27264	1.70063	0.785358	-0.28687	0.0561527	1.23838	1.58724
3.41	-0.0082607	-0.0371107	-0.028122	-0.233737	0.916648	-0.568613	0.267722	-0.0775353	-0.10262	0.430055	0.352781	0.0817839	-0.0230721	0.303698	-0.222094	-0.120449	0.510598	0.30225	0.0389103	-0.0230722	-0.405403	0.0481075	0.0399333	0.803628	-0.335408	0.066426	1.27566	1.69923	0.80093	-0.289262	0.0633523	1.23957	1.58903
3.42	-0.0250571	-0.0346528	-0.0264313	-0.236569	0.913274	-0.568527	0.304632	-0.0817433	-0.100019	0.458993	0.359052	0.0742015	-0.0230721	0.338407	-0.220746	-0.113152	0.532858	0.305518	0.033044	-0.0230722	-0.40104	0.0458114	0.0388376	0.819163	-0.339869	0.0718585	1.27843	1.69782	0.817645	-0.292025	0.0708356	1.24076	1.59056
3.43	-0.0411872	-0.0322438	-0.0245586	-0.239466	0.909706	-0.568447	0.340832	-0.0858994	-0.097213	0.487811	0.365249	0.0666518	-0.0230721	0.372605	-0.219416	-0.106386	0.555447	0.309311	0.0279721	-0.0230722	-0.397859	0.0435258	0.0375339	0.835994	-0.344471	0.0776948	1.28085	1.69642	0.835526	-0.295193	0.0786764	1.24192	1.59174
3.44	-0.0567076	-0.0299943	-0.022518	-0.242424	0.905933	-0.568371	0.376368	-0.0898867	-0.0943292	0.516499	0.371447	0.0592156	-0.0230721	0.406399	-0.218226	-0.100038	0.578414	0.313613	0.0236194	-0.0230722	-0.395807	0.0413734	0.0360697	0.854124	-0.349165	0.0838733	1.28287	1.69508	0.854583	-0.298772	0.0869548	1.24301	1.59251
